<?xml version="1.0" standalone="no"?>
<!DOCTYPE svg PUBLIC "-//W3C//DTD SVG 20010904//EN"
 "http://www.w3.org/TR/2001/REC-SVG-20010904/DTD/svg10.dtd">
<svg version="1.0" xmlns="http://www.w3.org/2000/svg"
 width="240.000000pt" height="240.000000pt" viewBox="0 0 240.000000 240.000000"
 preserveAspectRatio="xMidYMid meet">
<metadata>
Created by potrace 1.11, written by Peter Selinger 2001-2013
</metadata>
<g transform="translate(0.000000,240.000000) scale(0.100000,-0.100000)"
fill="#000000" stroke="none">
<path d="M1163 2233 c-22 -54 -40 -99 -38 -101 5 -6 175 -7 175 -2 0 12 -84
200 -89 200 -4 0 -25 -44 -48 -97z"/>
<path d="M1012 2082 c-84 -2 -93 -5 -87 -20 4 -9 35 -93 70 -187 35 -93 66
-177 69 -185 5 -13 31 -15 153 -15 l147 0 73 199 c40 110 72 201 70 202 -4 5
-393 9 -495 6z"/>
<path d="M827 2039 c-8 -11 -39 -46 -69 -77 -30 -31 -107 -114 -171 -184
l-118 -127 178 -142 c98 -78 186 -149 195 -157 16 -14 20 -11 42 39 13 30 46
100 74 157 l50 103 -35 92 c-19 51 -41 112 -49 137 -9 25 -21 59 -28 75 -8 17
-19 47 -26 68 -13 42 -23 46 -43 16z"/>
<path d="M1555 2033 c-3 -15 -36 -107 -72 -205 l-66 -177 58 -118 c31 -65 64
-135 72 -155 16 -41 23 -41 74 4 15 13 41 34 59 48 18 14 41 32 50 40 10 8 63
51 118 95 56 44 101 82 101 85 1 5 -36 46 -183 205 -51 55 -114 124 -141 153
-26 28 -51 52 -55 52 -4 0 -11 -12 -15 -27z"/>
<path d="M287 1822 c-25 -3 -22 -8 55 -68 l82 -64 34 32 c18 18 46 49 62 68
l28 35 -117 0 c-64 0 -128 -1 -144 -3z"/>
<path d="M1901 1801 c54 -68 101 -112 112 -104 50 37 147 118 147 122 0 3 -62
6 -139 6 l-139 0 19 -24z"/>
<path d="M1064 1607 c-8 -4 -14 -12 -14 -16 0 -5 -31 -73 -68 -151 l-69 -144
49 -105 c28 -58 61 -130 75 -158 13 -29 29 -53 34 -54 12 -1 117 -1 217 0 l79
1 15 38 c9 20 41 91 73 158 l57 120 -65 137 c-36 75 -68 145 -72 157 -3 11
-14 20 -23 21 -94 5 -276 2 -288 -4z"/>
<path d="M450 1291 c0 -160 3 -291 7 -291 6 0 200 155 213 170 3 3 36 30 73
59 37 29 67 57 65 61 -2 4 -43 40 -93 81 -49 40 -124 100 -165 134 -41 34 -81
64 -87 69 -10 6 -13 -54 -13 -283z"/>
<path d="M1944 1558 c-16 -13 -38 -30 -49 -40 -72 -60 -206 -168 -237 -192
-39 -29 -48 -50 -25 -59 6 -3 84 -64 172 -136 88 -72 162 -131 165 -131 3 0 5
131 5 290 0 160 0 290 -1 290 -1 0 -14 -10 -30 -22z"/>
<path d="M848 1227 c-7 -7 -33 -28 -58 -47 -25 -19 -95 -75 -155 -125 -61 -49
-123 -99 -139 -111 l-28 -20 143 -155 c79 -85 168 -180 198 -212 l55 -57 22
57 c13 32 48 127 78 211 l56 152 -36 78 c-20 42 -54 114 -75 160 -21 45 -40
82 -43 82 -2 0 -11 -6 -18 -13z"/>
<path d="M1551 1218 c-5 -13 -38 -84 -74 -159 l-65 -137 77 -212 78 -211 114
122 c63 68 143 154 179 193 36 38 73 78 83 89 10 10 17 20 15 21 -53 43 -188
152 -203 164 -11 9 -42 35 -70 56 -27 22 -59 49 -70 59 -39 36 -54 40 -64 15z"/>
<path d="M1067 903 c-3 -5 -21 -62 -42 -128 -20 -66 -50 -160 -66 -209 -16
-49 -29 -95 -29 -101 0 -8 78 -11 274 -10 151 0 277 3 279 5 2 3 -16 66 -39
140 -24 74 -55 174 -70 223 l-26 87 -139 0 c-76 0 -140 -3 -142 -7z"/>
<path d="M350 829 c-41 -33 -76 -64 -78 -68 -1 -5 58 -8 133 -8 74 0 135 3
135 6 0 4 -26 34 -57 69 l-58 62 -75 -61z"/>
<path d="M1949 830 c-30 -34 -55 -65 -57 -69 -1 -4 57 -7 130 -7 73 1 133 4
133 7 0 6 -14 18 -106 92 l-46 37 -54 -60z"/>
<path d="M1074 400 c-31 -5 -31 -5 -29 -66 2 -59 4 -63 84 -172 l83 -112 81
112 c77 109 81 115 84 176 l4 62 -43 1 c-24 0 -86 1 -138 2 -52 1 -109 0 -126
-3z"/>
</g>
</svg>
