<?xml version="1.0" standalone="no"?>
<!DOCTYPE svg PUBLIC "-//W3C//DTD SVG 20010904//EN"
 "http://www.w3.org/TR/2001/REC-SVG-20010904/DTD/svg10.dtd">
<svg version="1.0" xmlns="http://www.w3.org/2000/svg"
 width="330.000000pt" height="330.000000pt" viewBox="0 0 330.000000 330.000000"
 preserveAspectRatio="xMidYMid meet">
<metadata>
Created by potrace 1.11, written by Peter Selinger 2001-2013
</metadata>
<g transform="translate(0.000000,330.000000) scale(0.100000,-0.100000)"
fill="#000000" stroke="none">
<path d="M0 1650 l0 -1650 1650 0 1650 0 0 1650 0 1650 -1650 0 -1650 0 0
-1650z m2060 859 c0 -14 -650 -1560 -663 -1577 -11 -14 -163 -13 -161 1 1 5
151 363 334 798 l333 789 78 0 c50 0 79 -4 79 -11z m-1062 -351 l51 -53 -146
-120 c-81 -66 -200 -164 -265 -218 l-119 -98 266 -221 267 -221 -55 -55 -55
-55 -326 273 c-180 150 -325 276 -324 280 4 10 638 540 647 540 4 0 30 -24 59
-52z m1668 -219 c179 -150 322 -275 317 -279 -4 -4 -145 -121 -313 -260 -168
-139 -313 -260 -323 -268 -17 -15 -22 -12 -73 39 l-54 55 265 218 c146 120
265 220 265 222 0 1 -119 101 -264 222 l-264 219 51 51 c29 29 55 52 60 52 4
0 154 -122 333 -271z"/>
</g>
</svg>
