<?xml version="1.0" encoding="utf-8"?>
<!-- Generator: Adobe Illustrator 16.0.0, SVG Export Plug-In . SVG Version: 6.00 Build 0)  -->
<!DOCTYPE svg PUBLIC "-//W3C//DTD SVG 1.1//EN" "http://www.w3.org/Graphics/SVG/1.1/DTD/svg11.dtd">
<svg version="1.1" id="Layer_1" xmlns="http://www.w3.org/2000/svg" xmlns:xlink="http://www.w3.org/1999/xlink" x="0px" y="0px"
	 width="128.2470703px" height="154.8881836px" viewBox="0 0 128.2470703 154.8881836"
	 enable-background="new 0 0 128.2470703 154.8881836" xml:space="preserve">
<g>
	<polyline fill="#FFFFFF" points="55.9003906,140.6870117 64.1582031,152.8969727 72.4179688,140.6870117 55.9003906,140.6870117 	
		"/>
	<polyline fill="#2196F3" points="53.9560547,49.1967773 43.9443359,70.6499023 53.9560547,92.1069336 73.9873047,92.1069336 
		83.9990234,70.6499023 73.9873047,49.1967773 53.9560547,49.1967773 	"/>
	<polyline fill="#2196F3" points="12.9277344,51.2495117 12.9277344,91.1147461 37.2783203,71.1459961 12.9277344,51.2495117 	"/>
	<polyline fill="#2196F3" points="74.1171875,44.909668 84.0058594,17.5454102 44.2910156,17.5454102 54.3916016,44.909668 
		74.1171875,44.909668 	"/>
	<polyline fill="#2196F3" points="54.2714844,96.7143555 44.6894531,127.4838867 82.3496094,127.4838867 72.9746094,96.7143555 
		54.2714844,96.7143555 	"/>
	<polyline fill="#2196F3" points="50.0556641,46.565918 39.9248047,18.5356445 14.1923828,46.5776367 40.1552734,67.6166992 
		50.0556641,46.565918 	"/>
	<polyline fill="#2196F3" points="40.8193359,74.2758789 14.1923828,95.8510742 40.5830078,124.6030273 50.9697266,95.862793 
		40.8193359,74.2758789 	"/>
	<polygon fill="#2196F3" points="77.3730469,95.862793 87.7587891,124.6030273 114.1435547,95.8510742 87.5234375,74.2758789 	"/>
	<polygon fill="#2196F3" points="90.8183594,71.1704102 115.1679688,91.1430664 115.1679688,51.2739258 	"/>
	<polygon fill="#2196F3" points="87.7236328,67.6166992 113.6933594,46.5776367 87.9589844,18.5356445 77.8291016,46.565918 	"/>
	<polyline fill="#4C4C4C" points="63.8378906,0 57.7490234,14.3061523 69.9433594,14.3061523 63.8378906,0 	"/>
	<path fill="#4C4C4C" d="M52.6845703,139.2915039l11.1767578,15.5966797l11.1367188-15.5322266v-8.2099609H52.6845703V139.2915039
		 M65.3535156,143.0639648h4.0146484l-4.0146484,5.6123047V143.0639648 M62.671875,143.0639648v5.6123047l-4.0166016-5.6123047
		H62.671875"/>
	<polygon fill="#4C4C4C" points="108.921875,107.2495117 128.2470703,107.2495117 117.0126953,98.1479492 	"/>
	<polyline fill="#4C4C4C" points="0,107.2495117 19.3242188,107.2495117 11.2333984,98.1479492 0,107.2495117 	"/>
	<polygon fill="#4C4C4C" points="128.2470703,35.0112305 108.921875,35.0112305 117.0126953,44.112793 	"/>
	<polyline fill="#4C4C4C" points="11.2333984,44.112793 19.3242188,35.0112305 0,35.0112305 11.2333984,44.112793 	"/>
	<polyline fill="#FFFFFF" points="63.8476563,49.190918 53.9648438,49.190918 53.9619141,49.1967773 63.8476563,49.1967773 
		63.8476563,49.190918 	"/>
	<polyline fill="#4DABF5" points="63.8476563,49.1967773 53.9619141,49.1967773 43.9521484,70.6450195 53.9648438,92.1000977 
		63.8476563,92.1000977 63.8476563,49.1967773 	"/>
	<polyline fill="#FFFFFF" points="12.9345703,51.2436523 12.9345703,51.2553711 37.2783203,71.1459961 16.7890625,87.9477539 
		37.2871094,71.1401367 12.9345703,51.2436523 	"/>
	<polyline fill="#4DABF5" points="12.9345703,51.2553711 12.9345703,91.1088867 16.7890625,87.9477539 37.2783203,71.1459961 
		12.9345703,51.2553711 	"/>
	<polyline fill="#FFFFFF" points="63.8476563,17.5405273 44.2988281,17.5405273 44.3007813,17.5454102 63.8476563,17.5454102 
		63.8476563,17.5405273 	"/>
	<polyline fill="#4DABF5" points="63.8476563,17.5454102 44.3007813,17.5454102 54.3994141,44.9047852 63.8476563,44.9047852 
		63.8476563,17.5454102 	"/>
	<polyline fill="#FFFFFF" points="63.8476563,96.7084961 54.2802734,96.7084961 54.2783203,96.7143555 63.8476563,96.7143555 
		63.8476563,96.7084961 	"/>
	<polyline fill="#4DABF5" points="63.8476563,96.7143555 54.2783203,96.7143555 44.6972656,127.4780273 63.8476563,127.4780273 
		63.8476563,96.7143555 	"/>
	<polyline fill="#FFFFFF" points="39.9335938,18.5307617 39.9257813,18.5385742 50.0556641,46.565918 40.1591797,67.6088867 
		40.1640625,67.612793 50.0644531,46.5610352 39.9335938,18.5307617 	"/>
	<polyline fill="#4DABF5" points="39.9257813,18.5385742 14.2011719,46.5737305 40.1591797,67.6088867 50.0556641,46.565918 
		39.9257813,18.5385742 	"/>
	<polyline fill="#FFFFFF" points="40.828125,74.2719727 40.8203125,74.277832 50.9697266,95.862793 40.5869141,124.5932617 
		40.5917969,124.5981445 50.9785156,95.8569336 40.828125,74.2719727 	"/>
	<polyline fill="#4DABF5" points="40.8203125,74.277832 14.2011719,95.8452148 40.5869141,124.5932617 50.9697266,95.862793 
		40.8203125,74.277832 	"/>
	<polyline fill="#FFFFFF" points="63.8476563,0 63.8427734,0.0117188 63.8476563,0.0229492 63.8476563,0 	"/>
	<polyline fill="#707070" points="63.8427734,0.0117188 57.7578125,14.300293 63.8476563,14.300293 63.8476563,0.0229492 
		63.8427734,0.0117188 	"/>
	<polyline fill="#FFFFFF" points="63.8476563,131.1391602 52.6923828,131.1391602 52.6923828,131.1459961 63.8476563,131.1459961 
		63.8476563,131.1391602 	"/>
	<polyline fill="#FFFFFF" points="58.6679688,143.0639648 58.6552734,143.0639648 62.671875,148.6762695 62.671875,148.6577148 
		58.6679688,143.0639648 	"/>
	<path fill="#707070" d="M58.6679688,143.0639648l-0.0039063-0.0058594h4.0175781v5.6132813l-0.0097656-0.0136719v0.0185547
		l-4.0166016-5.6123047H58.6679688 M63.8476563,131.1459961H52.6923828v8.1386719l11.1552734,15.5644531V131.1459961"/>
	<polyline fill="#FFFFFF" points="11.2412109,98.144043 11.234375,98.1489258 19.3203125,107.2446289 19.3320313,107.2446289 
		11.2412109,98.144043 	"/>
	<polyline fill="#707070" points="11.234375,98.1489258 0.0078125,107.2446289 19.3203125,107.2446289 11.234375,98.1489258 	"/>
	<polyline fill="#FFFFFF" points="19.3320313,35.0053711 0.0078125,35.0053711 0.0146484,35.0112305 19.3242188,35.0112305 
		11.2392578,44.105957 11.2412109,44.1079102 19.3320313,35.0053711 	"/>
	<polyline fill="#707070" points="19.3242188,35.0112305 0.0146484,35.0112305 11.2392578,44.105957 19.3242188,35.0112305 	"/>
</g>
</svg>
